<?xml version="1.0" standalone="no"?>
<!DOCTYPE svg PUBLIC "-//W3C//DTD SVG 20010904//EN"
 "http://www.w3.org/TR/2001/REC-SVG-20010904/DTD/svg10.dtd">
<svg version="1.0" xmlns="http://www.w3.org/2000/svg"
 width="1280.000000pt" height="720.000000pt" viewBox="0 0 1280.000000 720.000000"
 preserveAspectRatio="xMidYMid meet">
<metadata>
Created by potrace 1.16, written by Peter Selinger 2001-2019
</metadata>
<g transform="translate(0.000000,720.000000) scale(0.100000,-0.100000)"
fill="#000000" stroke="none">
<path d="M5991 7044 c-429 -60 -790 -239 -1072 -531 -214 -222 -367 -515 -441
-845 l-23 -103 0 -1860 0 -1860 24 -110 c73 -343 237 -661 454 -883 169 -173
356 -300 570 -387 l79 -32 -149 -6 c-151 -6 -319 -31 -466 -67 -114 -29 -357
-111 -357 -121 0 -5 760 -9 1695 -9 934 0 1695 4 1695 9 0 9 -212 80 -335 111
-187 48 -469 83 -745 93 l-65 2 40 14 c75 26 260 117 354 176 306 190 577 494
709 797 53 122 72 217 82 425 15 302 34 2891 23 3178 -5 143 -8 262 -6 265 3
3 117 6 255 8 l251 3 -6 62 c-19 225 -197 364 -492 384 l-90 6 -48 131 c-61
164 -139 327 -207 431 -253 385 -619 621 -1100 707 -154 27 -480 34 -629 12z
m632 -215 c463 -93 810 -354 1014 -764 57 -113 127 -294 157 -405 65 -242 76
-428 76 -1335 0 -878 -17 -2310 -30 -2505 -12 -169 -24 -222 -80 -339 -142
-295 -416 -578 -711 -731 l-79 -41 0 1764 0 1764 -25 23 c-20 19 -45 26 -132
37 -311 40 -586 134 -798 274 -110 73 -279 243 -350 352 -183 282 -256 624
-195 917 109 531 437 896 891 995 90 19 146 18 262 -6z m1562 -1194 c38 -8 93
-27 121 -41 62 -31 142 -100 167 -143 l18 -31 -225 0 -226 0 -4 23 c-14 67
-36 186 -36 195 0 17 100 15 185 -3z"/>
<path d="M6814 5870 c-94 -19 -190 -85 -242 -168 -126 -198 -49 -460 166 -560
50 -24 70 -27 157 -27 87 0 107 3 157 27 202 94 282 324 183 525 -77 156 -246
237 -421 203z"/>
</g>
</svg>
