<?xml version="1.0" standalone="no"?>
<!DOCTYPE svg PUBLIC "-//W3C//DTD SVG 20010904//EN"
 "http://www.w3.org/TR/2001/REC-SVG-20010904/DTD/svg10.dtd">
<svg version="1.0" xmlns="http://www.w3.org/2000/svg"
 width="1280.000000pt" height="720.000000pt" viewBox="0 0 1280.000000 720.000000"
 preserveAspectRatio="xMidYMid meet">
<metadata>
Created by potrace 1.16, written by Peter Selinger 2001-2019
</metadata>
<g transform="translate(0.000000,720.000000) scale(0.100000,-0.100000)"
fill="#000000" stroke="none">
<path d="M5958 7045 c-368 -60 -683 -205 -945 -434 -258 -226 -443 -543 -533
-913 l-30 -122 0 -1869 0 -1868 25 -111 c56 -249 170 -512 302 -698 86 -121
261 -296 383 -383 92 -65 336 -196 369 -198 12 0 11 -3 -4 -9 -11 -5 -52 -9
-92 -9 -87 -1 -266 -24 -395 -50 -145 -30 -428 -124 -428 -142 0 -5 659 -9
1695 -9 1036 0 1695 4 1695 9 0 20 -279 108 -441 140 -167 32 -489 67 -649 71
-8 0 19 15 60 34 378 167 665 406 874 729 127 194 179 346 196 569 14 182 33
2048 29 2836 l-4 682 170 0 c94 0 207 3 253 7 l83 6 -6 46 c-15 111 -43 178
-101 241 -87 93 -244 157 -396 161 -84 2 -85 3 -137 139 -70 182 -142 330
-215 439 -244 366 -585 591 -1041 687 -106 22 -151 26 -375 29 -190 3 -277 1
-342 -10z m692 -229 c286 -65 522 -190 708 -376 115 -114 200 -235 283 -405
109 -223 172 -432 200 -660 18 -152 25 -939 17 -2045 -7 -1099 -19 -1566 -43
-1675 -53 -250 -328 -609 -613 -803 -82 -55 -213 -132 -226 -132 -3 0 -6 794
-6 1763 0 1731 0 1764 -19 1781 -13 12 -72 27 -183 46 -436 74 -702 195 -931
424 -156 156 -255 316 -321 519 -60 183 -76 416 -41 582 22 106 86 297 125
376 133 265 350 471 600 569 163 64 283 74 450 36z m1549 -1191 c110 -29 232
-110 267 -176 l15 -29 -218 0 -218 0 -18 98 c-10 53 -17 103 -17 110 0 17 120
16 189 -3z"/>
<path d="M6762 5861 c-110 -41 -200 -136 -237 -249 -27 -81 -18 -211 20 -288
35 -72 104 -143 176 -181 51 -26 62 -28 174 -28 112 0 123 2 174 28 72 38 141
109 177 182 26 55 29 69 29 165 0 93 -3 111 -27 163 -38 81 -115 158 -191 193
-84 38 -215 44 -295 15z"/>
</g>
</svg>
